<svg xmlns="http://www.w3.org/2000/svg" viewBox="0 0 59.08 75.82"><defs><style>.cls-1{fill:#d05e5e;}</style></defs><g id="Capa_2" data-name="Capa 2"><g id="Capa_1-2" data-name="Capa 1"><path class="cls-1" d="M59.08,37.91A2.06,2.06,0,0,0,57.85,36a2.76,2.76,0,0,0-.61-.23L47.89,34l-3.11-.58-.58-.14A2,2,0,0,1,42.73,31a13.14,13.14,0,0,1,1.79-3.9c.42-.68.86-1.34,1.32-2,.76-1.1-.62-2.38-1.79-1.67-.81.49-1.6.95-2.4,1.39a16.34,16.34,0,0,1-3.26,1.4,2.1,2.1,0,0,1-2.67-1.54h0v0l0-.14L34.75,19,31.81,1.81a2.33,2.33,0,0,0-4.54,0L24.36,18.88l-1,5.6,0,.14v0h0a2.11,2.11,0,0,1-2.68,1.54,16,16,0,0,1-3.25-1.4c-.81-.44-1.6-.9-2.41-1.39-1.17-.71-2.55.57-1.79,1.67.46.67.9,1.33,1.32,2A13.14,13.14,0,0,1,16.35,31a2,2,0,0,1-1.47,2.33l-.58.14L11.19,34,1.84,35.8a2.66,2.66,0,0,0-.62.23,2.06,2.06,0,0,0,0,3.76,2,2,0,0,0,.62.23l9.35,1.76,3.11.59c.2,0,.39.09.58.13a2,2,0,0,1,1.47,2.33,13.14,13.14,0,0,1-1.79,3.9q-.63,1-1.32,2c-.76,1.1.62,2.38,1.79,1.67.81-.49,1.6-.95,2.41-1.39a16.63,16.63,0,0,1,3.25-1.4,2.11,2.11,0,0,1,2.67,1.54h0v0l0,.14,1,5.6L27.27,74a2.33,2.33,0,0,0,4.54,0L34.75,56.8l.93-5.43,0-.17v0h0a2.11,2.11,0,0,1,2.67-1.54A17,17,0,0,1,41.65,51c.8.44,1.59.9,2.4,1.39,1.17.71,2.55-.57,1.79-1.67q-.69-1-1.32-2a13.14,13.14,0,0,1-1.79-3.9A2,2,0,0,1,44.2,42.5c.19,0,.38-.1.58-.13L57.24,40h0a1.81,1.81,0,0,0,.35-.13l.26-.09a2.08,2.08,0,0,0,1.23-1.89Z"/></g></g></svg>