<svg xmlns="http://www.w3.org/2000/svg" viewBox="0 0 194.63 67.48"><defs><style>.cls-1{fill:#fff;}</style></defs><g id="Capa_2" data-name="Capa 2"><g id="Capa_1-2" data-name="Capa 1"><path class="cls-1" d="M192.13,14.4a.67.67,0,0,0-.4-.61l-.2-.08-3.05-.57-1-.19-.19,0a.66.66,0,0,1-.48-.76,4.22,4.22,0,0,1,.59-1.27c.13-.22.28-.44.43-.66s-.2-.77-.59-.54-.52.31-.78.45a5.31,5.31,0,0,1-1.06.46.7.7,0,0,1-.88-.5h0v0l-.3-1.78-1-5.62a.76.76,0,0,0-1.48,0l-.95,5.57L180.48,10v0h0a.69.69,0,0,1-.87.5,5.07,5.07,0,0,1-1.06-.46c-.27-.14-.52-.29-.79-.45s-.83.19-.58.54.29.44.43.66a4.16,4.16,0,0,1,.58,1.27.65.65,0,0,1-.48.76l-.18,0-1,.19-3.05.57a1.31,1.31,0,0,0-.21.08.66.66,0,0,0-.39.61.68.68,0,0,0,.39.62.74.74,0,0,0,.21.07l3.05.57,1,.2.18,0a.65.65,0,0,1,.48.76,4.16,4.16,0,0,1-.58,1.27c-.14.23-.28.44-.43.66s.2.78.58.55.52-.32.79-.46a5.67,5.67,0,0,1,1.06-.46.69.69,0,0,1,.87.51h0v.05l.32,1.82.95,5.58a.76.76,0,0,0,1.48,0l1-5.62.3-1.78v-.05h0a.7.7,0,0,1,.88-.51,6,6,0,0,1,1.06.46c.26.14.52.3.78.46s.84-.19.59-.55-.3-.43-.43-.66a4.22,4.22,0,0,1-.59-1.27.66.66,0,0,1,.48-.76l.19,0,4.07-.77h0l.11,0,.09,0a.69.69,0,0,0,.4-.62Z"/><path class="cls-1" d="M5.83,41.91a22.82,22.82,0,0,0,5.74.88,9.77,9.77,0,0,0,3.8-.59,2,2,0,0,0,1.34-2,1.82,1.82,0,0,0-.91-1.53,8.1,8.1,0,0,0-2.27-1c-.9-.26-2.14-.57-3.71-.91L8.6,36.47a11.17,11.17,0,0,1-5.72-3.09,7.43,7.43,0,0,1-2-5.27A8.67,8.67,0,0,1,1,26.39a6.76,6.76,0,0,1,4.05-5,19.69,19.69,0,0,1,8.45-1.6,22.49,22.49,0,0,1,5.75.69,22,22,0,0,1,4.45,1.66l-.82,6a17.84,17.84,0,0,0-3-1c-1.25-.32-2.52-.59-3.82-.81A28.53,28.53,0,0,0,13,26.06c-2.67,0-4,.65-4,1.94a2.2,2.2,0,0,0,1.34,2,14.51,14.51,0,0,0,4.15,1.21,18.2,18.2,0,0,1,7.88,3.22,7,7,0,0,1,2.91,5.71,7.58,7.58,0,0,1-1.79,5.25,9.79,9.79,0,0,1-4.61,2.84,21.14,21.14,0,0,1-6.16.85,26.45,26.45,0,0,1-3-.16A24.45,24.45,0,0,1,0,46.07l.73-6.18A18.06,18.06,0,0,0,5.83,41.91Z"/><path class="cls-1" d="M28.36,20.81l8.2-.76v3.47A7.23,7.23,0,0,1,38,22a11,11,0,0,1,2.73-1.58,9.21,9.21,0,0,1,3.63-.7q6.63,0,8.85,4.43a23,23,0,0,1,2.23,10.46q0,6.68-2.71,10.58T43.85,49.1a13.56,13.56,0,0,1-4-.61,10.7,10.7,0,0,1-3.25-1.58V65.33l-8.2-.49Zm9,21a16.33,16.33,0,0,0,2,.63,10.06,10.06,0,0,0,2.41.28,4.17,4.17,0,0,0,3.31-1.39A7.62,7.62,0,0,0,46.79,38a16.63,16.63,0,0,0,.46-3.9,12.06,12.06,0,0,0-.67-4.24,6.39,6.39,0,0,0-1.8-2.76,3.77,3.77,0,0,0-2.5-1,5.82,5.82,0,0,0-3.63,1.07,9.16,9.16,0,0,0-2.09,2.1V41.45A5.77,5.77,0,0,0,37.39,41.82Z"/><path class="cls-1" d="M85.67,39.74a4.81,4.81,0,0,0,.8,2.23,2.07,2.07,0,0,0,1.73.76,7.06,7.06,0,0,0,2.57-.54,8.37,8.37,0,0,0,2-1L94.51,45a12.81,12.81,0,0,1-4,3,10.85,10.85,0,0,1-4.77,1.15q-5.76,0-7.58-4.78a11.87,11.87,0,0,1-3.48,3.37,9.33,9.33,0,0,1-4.75,1.41q-.35,0-1,0-6.12,0-8.32-4.54a23.54,23.54,0,0,1-2.2-10.36q0-6.69,2.69-10.6T70,19.72a10.56,10.56,0,0,1,4,.83,12.12,12.12,0,0,1,3.28,1.9V20.07l8.23.74v15A30.72,30.72,0,0,0,85.67,39.74ZM72,26.11a4.14,4.14,0,0,0-3.31,1.43A8,8,0,0,0,67,30.9a15.65,15.65,0,0,0-.48,3.77,12.06,12.06,0,0,0,1.23,5.41,4.35,4.35,0,0,0,3.54,2.49l.4,0a5.7,5.7,0,0,0,3.11-1,7.74,7.74,0,0,0,2.41-2.35V28.38A7.15,7.15,0,0,0,72,26.11Z"/><path class="cls-1" d="M114.77,25.8a10.36,10.36,0,0,0-2.33-.23,8,8,0,0,0-3.49.82,7.91,7.91,0,0,0-2.8,2.17,4.46,4.46,0,0,0-1.09,2.86v17h-8.2V20.79l8.2-.74v4A10.3,10.3,0,0,1,108.68,21,10.94,10.94,0,0,1,114,19.72a9.59,9.59,0,0,1,2.58.33,7.49,7.49,0,0,1,1.52.54L117,26.47C116.13,26.18,115.41,26,114.77,25.8Z"/><path class="cls-1" d="M148.38,42.47v5.74a8.23,8.23,0,0,1-3.87.89,13.28,13.28,0,0,1-6.59-1.64,14.83,14.83,0,0,1-4.9-4.39,18.64,18.64,0,0,1-2.86-6.13,5.16,5.16,0,0,1-1.81.43V48.42h-8.19V10.73l8.19-.71V32.78l2-1.31,7.46-11.42,8.66.71-9.06,12.9.13.26c0,.1.1.21.16.34.93,1.82,1.75,3.29,2.48,4.42a10.71,10.71,0,0,0,2.79,2.87A7,7,0,0,0,147,42.73,4,4,0,0,0,148.38,42.47Z"/><path class="cls-1" d="M174,40.16a7.58,7.58,0,0,1-1.79,5.25,9.79,9.79,0,0,1-4.61,2.84,21.09,21.09,0,0,1-6.16.85c-.52,0-1.19,0-3-.16s-4.2-.4-7.16-.82V42.18a30.11,30.11,0,0,0,8.25.92s4.71-.15,5.61-1.69a2.44,2.44,0,0,0,.33-1.19,1.81,1.81,0,0,0-.91-1.53,8.1,8.1,0,0,0-2.27-1c-.9-.26-2.13-.57-3.71-.92l-1.21-.27a11.26,11.26,0,0,1-5.73-3.08,7.46,7.46,0,0,1-2-5.28,9.56,9.56,0,0,1,.14-1.72,6.81,6.81,0,0,1,4.05-5.05,19.85,19.85,0,0,1,8.45-1.59,22,22,0,0,1,5.75.7,21.45,21.45,0,0,1,4.45,1.65l-.81,6a18.48,18.48,0,0,0-3-1c-1.25-.32-2.53-.59-3.83-.81a28.24,28.24,0,0,0-3.08-.19c-2.67,0-4,.65-4,1.94a2.2,2.2,0,0,0,1.33,2,14.32,14.32,0,0,0,4.16,1.2,18.28,18.28,0,0,1,7.87,3.23A7,7,0,0,1,174,40.16Z"/><path class="cls-1" d="M64.44,65V61.73c0-1,0-1.35-.19-1.6a1.05,1.05,0,0,0-1-.46,1.68,1.68,0,0,0-1.15.46,2.54,2.54,0,0,0-.64,2V65h-1V61.67a3,3,0,0,0-.17-1.48,1,1,0,0,0-1-.52,1.74,1.74,0,0,0-1.31.65,2.5,2.5,0,0,0-.46,1.76V65h-1V58.91h1v.94a2.6,2.6,0,0,1,2.14-1A1.66,1.66,0,0,1,61.39,60a2.58,2.58,0,0,1,2.27-1.13,1.61,1.61,0,0,1,1.75,1.33,9.32,9.32,0,0,1,.07,1.71V65Z"/><path class="cls-1" d="M72.57,63.42a2.69,2.69,0,0,1-2.69,1.72c-2,0-3.06-1.29-3.06-3.26a2.89,2.89,0,0,1,3-3.13c1.78,0,2.75,1.15,2.76,3.35H67.86a2,2,0,0,0,2,2.21,1.6,1.6,0,0,0,1.74-1.18Zm-2.78-3.87a1.81,1.81,0,0,0-1.91,1.78h3.64C71.43,60,70.75,59.55,69.79,59.55Z"/><path class="cls-1" d="M78.16,65v-.91a2.44,2.44,0,0,1-2.1,1c-1.5,0-2.48-1.19-2.48-3.15s1.19-3.14,2.64-3.14a2.08,2.08,0,0,1,1.94.88v-3.4h1V65Zm-1.78-5.34c-1.1,0-1.73.81-1.73,2.31s.65,2.31,1.68,2.31,1.84-.87,1.84-2.22C78.17,60.5,77.51,59.65,76.38,59.65Z"/><path class="cls-1" d="M81,57.39v-1.1H82v1.1ZM81,65V58.91h1V65Z"/><path class="cls-1" d="M87.45,60.75c0-.78-.45-1.18-1.34-1.18s-1.44.4-1.52,1.26l-1-.11c.1-1.27,1.14-2,2.6-2a2.42,2.42,0,0,1,1.8.6,2.34,2.34,0,0,1,.48,1.79v2c0,.25,0,.64,0,.81s.23.36.55.36l.25,0V65a4.73,4.73,0,0,1-.53,0c-.87,0-1.2-.31-1.26-.94a2.5,2.5,0,0,1-2.15,1,1.83,1.83,0,0,1-2-1.71,1.68,1.68,0,0,1,1.21-1.63,10.87,10.87,0,0,1,2.92-.49Zm0,1.22a8.5,8.5,0,0,0-2.35.4,1,1,0,0,0-.76,1c0,.65.49,1,1.22,1A1.81,1.81,0,0,0,87.37,63a3.31,3.31,0,0,0,.08-.68Z"/><path class="cls-1" d="M97.71,65h-.3c-.58,0-.88-.25-.88-.73a1.21,1.21,0,0,1,0-.34,2.56,2.56,0,0,1-2.29,1.19,1.57,1.57,0,0,1-1.72-1.56,1.7,1.7,0,0,1,.77-1.45c.65-.41,1.39-.55,3.78-.69l.08-.31a4.28,4.28,0,0,0,.11-.8c0-.65-.53-1-1.4-1A1.8,1.8,0,0,0,94,60.73l-.51-.11A2.29,2.29,0,0,1,96,58.92c1.18,0,1.83.49,1.83,1.38a6.65,6.65,0,0,1-.21,1.19l-.44,1.91a3.28,3.28,0,0,0-.11.69c0,.36.17.5.58.5a.71.71,0,0,0,.17,0ZM97,61.83a9.8,9.8,0,0,0-3,.44,1.23,1.23,0,0,0-.89,1.27c0,.73.51,1.16,1.31,1.16A2.21,2.21,0,0,0,96,64a3.59,3.59,0,0,0,.89-1.71Z"/><path class="cls-1" d="M102.82,65l.72-3a7.09,7.09,0,0,0,.23-1.48c0-.73-.4-1.06-1.16-1.06a2.44,2.44,0,0,0-1.79.81,4.17,4.17,0,0,0-1,2.22L99.27,65h-.52l1.39-5.92h.51l-.28,1.15A2.65,2.65,0,0,1,102.62,59c1.09,0,1.68.47,1.68,1.48a6.71,6.71,0,0,1-.24,1.45L103.33,65Z"/><path class="cls-1" d="M110,65h-.5l.26-1.07a2.36,2.36,0,0,1-2.1,1.17,2,2,0,0,1-2.09-2.23c0-2.16,1.4-3.89,3.26-3.89a1.64,1.64,0,0,1,1.79,1.18l.91-3.86H112Zm-.52-1.3a5.07,5.07,0,0,0,.82-2.75c0-1.06-.51-1.55-1.48-1.55-1.52,0-2.73,1.51-2.73,3.48,0,1.15.6,1.8,1.57,1.8A2.22,2.22,0,0,0,109.44,63.69Z"/><path class="cls-1" d="M120.41,63.42a2.69,2.69,0,0,1-2.69,1.72c-2,0-3.06-1.29-3.06-3.26a2.89,2.89,0,0,1,3-3.13c1.78,0,2.75,1.15,2.76,3.35h-4.71a2,2,0,0,0,2,2.21,1.6,1.6,0,0,0,1.74-1.18Zm-2.78-3.87a1.81,1.81,0,0,0-1.91,1.78h3.64C119.27,60,118.59,59.55,117.63,59.55Z"/><path class="cls-1" d="M125.24,65c-.56-.85-1.14-1.73-1.67-2.59-.45.7-.92,1.45-1.68,2.59h-1.14l2.16-3.15-2-2.93h1.19c.5.77,1,1.55,1.47,2.32.49-.73.88-1.38,1.49-2.32h1.14l-2,2.89L126.41,65Z"/><path class="cls-1" d="M128.48,58.91v.91a2.53,2.53,0,0,1,2.1-1c1.5,0,2.47,1.22,2.47,3.17s-1.16,3.12-2.62,3.12a2,2,0,0,1-2-.89v3.28h-1V58.91Zm1.78,5.34c1.1,0,1.72-.79,1.72-2.29s-.64-2.33-1.67-2.33-1.84.87-1.84,2.22C128.47,63.4,129.14,64.25,130.26,64.25Z"/><path class="cls-1" d="M139.81,63.42a2.69,2.69,0,0,1-2.68,1.72c-2,0-3.07-1.29-3.07-3.26a2.89,2.89,0,0,1,3-3.13c1.78,0,2.75,1.15,2.77,3.35h-4.72a2,2,0,0,0,2,2.21,1.62,1.62,0,0,0,1.75-1.18ZM137,59.55a1.82,1.82,0,0,0-1.92,1.78h3.64C138.67,60,138,59.55,137,59.55Z"/><path class="cls-1" d="M141.21,65V58.91h1v1A1.89,1.89,0,0,1,144,58.83a2.39,2.39,0,0,1,.59.08v1a1.43,1.43,0,0,0-.71-.16,1.5,1.5,0,0,0-1.41.78,2.9,2.9,0,0,0-.25,1.39v3Z"/><path class="cls-1" d="M145.56,57.39v-1.1h1.06v1.1Zm0,7.6V58.91h1V65Z"/><path class="cls-1" d="M153.78,63.42a2.69,2.69,0,0,1-2.69,1.72c-2,0-3.06-1.29-3.06-3.26a2.89,2.89,0,0,1,3-3.13c1.78,0,2.75,1.15,2.76,3.35h-4.72a2,2,0,0,0,2.05,2.21,1.6,1.6,0,0,0,1.74-1.18ZM151,59.55a1.81,1.81,0,0,0-1.91,1.78h3.64C152.64,60,152,59.55,151,59.55Z"/><path class="cls-1" d="M159.35,65V61.32a2.11,2.11,0,0,0-.27-1.21,1.19,1.19,0,0,0-1.07-.44,1.81,1.81,0,0,0-1.31.63,2.49,2.49,0,0,0-.49,1.77V65h-1V58.91h1v.94a2.63,2.63,0,0,1,2.18-1,1.82,1.82,0,0,1,1.68.81,3,3,0,0,1,.3,1.65V65Z"/><path class="cls-1" d="M166.16,60.8a1.42,1.42,0,0,0-1.5-1.22c-1.16,0-1.9.85-1.9,2.37s.75,2.36,2,2.36a1.35,1.35,0,0,0,1.47-1.15l1,.29a2.45,2.45,0,0,1-2.53,1.69,2.87,2.87,0,0,1-2.94-3.2,2.88,2.88,0,0,1,3-3.18,2.25,2.25,0,0,1,2.41,1.75Z"/><path class="cls-1" d="M173.6,63.42a2.69,2.69,0,0,1-2.69,1.72c-2,0-3.06-1.29-3.06-3.26a2.89,2.89,0,0,1,3-3.13c1.78,0,2.75,1.15,2.76,3.35H168.9a2,2,0,0,0,2,2.21,1.6,1.6,0,0,0,1.74-1.18Zm-2.78-3.87a1.81,1.81,0,0,0-1.91,1.78h3.64C172.46,60,171.78,59.55,170.82,59.55Z"/><path class="cls-1" d="M190.46,4.51a2.73,2.73,0,0,1-.65-1.91,2.66,2.66,0,0,1,.66-1.9A2.55,2.55,0,0,1,194,.7a2.7,2.7,0,0,1,.65,1.9A2.73,2.73,0,0,1,194,4.51a2.54,2.54,0,0,1-3.52,0Zm3.18-.31a2.36,2.36,0,0,0,.51-1.6A2.26,2.26,0,0,0,193.63,1a1.79,1.79,0,0,0-1.41-.57A1.76,1.76,0,0,0,190.8,1a2.31,2.31,0,0,0-.51,1.58,2.34,2.34,0,0,0,.51,1.61,2,2,0,0,0,2.84,0Zm-2.2-3.06h.85a.74.74,0,0,1,.84.84.78.78,0,0,1-.39.75l.48,1.3h-.54l-.42-1.19h-.33V4h-.49Zm.81,1.25a.41.41,0,0,0,.3-.09.5.5,0,0,0,.09-.33.43.43,0,0,0-.09-.31.41.41,0,0,0-.3-.09h-.32v.82Z"/></g></g></svg>